 <svg
        xmlns="http://www.w3.org/2000/svg"
        width="256"
        height="41"
        viewBox="0 0 256 41"
        fill="none"
      >
        <path
          d="M20.2962 40.5925C31.5055 40.5925 40.5925 31.5055 40.5925 20.2962C40.5925 9.08694 31.5055 0 20.2962 0C9.08694 0 0 9.08694 0 20.2962C0 31.5055 9.08694 40.5925 20.2962 40.5925Z"
          fill="#FFF"
        />
        <path
          d="M250.594 7.69934H251.717C252.296 7.69934 252.92 7.81391 252.92 8.54144C252.92 9.40645 252.233 9.44655 251.482 9.44655H250.6V7.69934H250.594ZM249.747 12.4941H250.594V10.134H251.494L252.983 12.4941H253.894L252.336 10.071C253.149 9.98503 253.774 9.57258 253.774 8.57581C253.774 7.52176 253.161 7.01191 251.86 7.01191H249.752V12.4941H249.747ZM247.707 9.73297C247.707 7.48166 249.38 5.75163 251.568 5.75163C253.757 5.75163 255.401 7.48166 255.401 9.73297C255.401 11.9843 253.722 13.7659 251.568 13.7659C249.414 13.7659 247.707 12.0359 247.707 9.73297ZM246.859 9.73297C246.859 12.4311 249.008 14.4533 251.568 14.4533C254.129 14.4533 256.248 12.4311 256.248 9.73297C256.248 7.03483 254.112 5.06421 251.568 5.06421C249.025 5.06421 246.859 7.08639 246.859 9.73297Z"
          fill="#FFF"
        />
        <path
          d="M54.7484 5.02393L64.8421 30.6706L74.8957 5.02393H78.9744L66.5148 35.5284H63.1636L50.6582 5.02393H54.7369H54.7484Z"
          fill="#FFF"
        />
        <path
          d="M103.812 32.0913V35.5284H83.1035V5.02393H103.428V8.46105H86.9703V18.3428H101.28V21.5622H86.9703V32.0913H103.812Z"
          fill="#FFF"
        />
        <path
          d="M109.094 35.5284V5.02393H122.155C123.501 5.02393 124.738 5.30462 125.873 5.86029C127.001 6.42169 127.975 7.1664 128.794 8.09443C129.608 9.02818 130.249 10.0708 130.708 11.2337C131.166 12.3908 131.395 13.5766 131.395 14.7796C131.395 15.8394 131.246 16.8648 130.942 17.8501C130.639 18.8355 130.209 19.7348 129.654 20.5368C129.092 21.3388 128.422 22.0263 127.631 22.5991C126.841 23.172 125.964 23.5901 124.99 23.8479L132.38 35.5342H127.998L121.038 24.5812H112.961V35.5342H109.094V35.5284ZM112.961 21.1383H122.195C122.997 21.1383 123.719 20.9665 124.366 20.6228C125.013 20.279 125.563 19.815 126.022 19.225C126.48 18.6407 126.841 17.959 127.099 17.1856C127.356 16.4123 127.488 15.6103 127.488 14.7796C127.488 13.949 127.339 13.1126 127.036 12.3507C126.738 11.5946 126.331 10.9186 125.833 10.3343C125.328 9.74998 124.744 9.29169 124.074 8.95944C123.398 8.63291 122.693 8.46678 121.949 8.46678H112.972V21.1383H112.961Z"
          fill="#FFF"
        />
        <path
          d="M146.599 5.02393H149.865L162.324 35.5284H158.2L154.591 26.5919H141.787L138.224 35.5284H134.1L146.605 5.02393H146.599ZM153.731 23.5844L148.232 9.49219L142.561 23.5844H153.731Z"
          fill="#FFF"
        />
        <path
          d="M166.408 35.5284V5.02393H170.275V32.0913H187.289V35.5284H166.408Z"
          fill="#FFF"
        />
        <path
          d="M200.781 5.02393H204.046L216.506 35.5284H212.381L208.772 26.5919H195.969L192.406 35.5284H188.281L200.787 5.02393H200.781ZM207.913 23.5844L202.414 9.49219L196.742 23.5844H207.913Z"
          fill="#FFF"
        />
        <path
          d="M244.002 27.6689C244.002 28.8432 243.767 29.9202 243.292 30.8883C242.816 31.8622 242.175 32.6928 241.356 33.3802C240.536 34.0677 239.591 34.6004 238.52 34.967C237.443 35.3394 236.292 35.5284 235.06 35.5284H220.578V5.02393H235.742C236.801 5.02393 237.764 5.25307 238.623 5.71135C239.482 6.16964 240.216 6.7654 240.817 7.49293C241.419 8.22045 241.883 9.05682 242.215 9.98485C242.541 10.9186 242.708 11.8524 242.708 12.7976C242.708 14.3156 242.329 15.7191 241.568 17.008C240.806 18.297 239.729 19.2594 238.325 19.8895C240.072 20.4051 241.453 21.356 242.473 22.7481C243.487 24.1401 243.996 25.7785 243.996 27.6689H244.002ZM224.456 8.38085V18.5605H234.166C234.854 18.5605 235.484 18.423 236.057 18.1538C236.63 17.8845 237.122 17.5179 237.54 17.0596C237.953 16.6013 238.285 16.0628 238.526 15.4499C238.766 14.8369 238.892 14.1839 238.892 13.4964C238.892 12.809 238.778 12.1101 238.549 11.48C238.319 10.8499 238.01 10.3056 237.626 9.84736C237.242 9.38908 236.767 9.03391 236.211 8.7704C235.65 8.51261 235.06 8.38658 234.43 8.38658H224.462L224.456 8.38085ZM240.095 26.9872C240.095 26.2998 239.975 25.6352 239.729 24.9879C239.482 24.3406 239.156 23.7792 238.743 23.2923C238.325 22.8053 237.833 22.4215 237.26 22.1351C236.687 21.8487 236.057 21.7055 235.369 21.7055H224.456V32.1887H235.071C235.787 32.1887 236.446 32.0455 237.048 31.7591C237.649 31.4726 238.176 31.0945 238.64 30.6191C239.099 30.1436 239.454 29.5937 239.717 28.9635C239.975 28.3334 240.101 27.6746 240.101 26.9872H240.095Z"
          fill="#FFF"
        />
      </svg>